<svg width="167" height="53" viewBox="0 0 167 53" fill="none" xmlns="http://www.w3.org/2000/svg">
<rect y="9" width="43.832" height="43.832" rx="7.88976" fill="url(#paint0_linear)"/>
<path d="M52.6164 21.5084V22.3405H55.0819V39.1679H52.6164V40H61.8006C64.6565 40 67.009 39.1371 68.8582 37.4112C70.6663 35.7058 71.5703 33.5074 71.5703 30.8158C71.5703 27.3846 70.2759 24.8266 67.6871 23.1418C65.9817 22.0528 63.9887 21.5084 61.7081 21.5084H52.6164ZM61.8006 22.3405C63.9579 22.3405 65.3962 23.3986 66.1153 25.5149C66.5262 26.8093 66.7317 28.5249 66.7317 30.6617C66.7317 34.9353 65.879 37.5755 64.1737 38.5823C63.5162 38.9727 62.7046 39.1679 61.7389 39.1679H59.3967V22.3405H61.8006ZM78.3678 39.1987H77.2275V26.7477H71.5259V27.549H73.3135V37.5961C73.3135 38.5001 72.9539 39.0138 72.2348 39.1371C72.0293 39.1781 71.793 39.1987 71.5259 39.1987V40H79.1075C79.1075 39.5274 78.974 39.2706 78.7069 39.2295C78.6041 39.209 78.4911 39.1987 78.3678 39.1987ZM77.5049 22.7103C77.5049 21.8063 77.1042 21.1385 76.3029 20.7071C75.9537 20.5016 75.5838 20.3989 75.1934 20.3989C74.31 20.3989 73.6422 20.7995 73.1902 21.6008C73.0053 21.9501 72.9128 22.3199 72.9128 22.7103C72.9128 23.6144 73.3135 24.2718 74.1148 24.6828C74.464 24.8677 74.8236 24.9601 75.1934 24.9601C76.0975 24.9601 76.7652 24.58 77.1967 23.8198C77.4022 23.4705 77.5049 23.1007 77.5049 22.7103ZM83.0696 31.4938C83.0696 29.4598 83.2957 28.1756 83.7477 27.6414C84.0764 27.2716 84.5592 27.0867 85.1962 27.0867C86.2235 27.0867 86.8707 27.5592 87.1378 28.5044C87.2816 29.0797 87.3535 30.0453 87.3535 31.4014C87.3535 33.4766 87.107 34.7915 86.6139 35.3463C86.2646 35.6956 85.7818 35.8702 85.1654 35.8702C84.1586 35.8702 83.5319 35.3976 83.2854 34.4525C83.1416 33.8978 83.0696 32.9115 83.0696 31.4938ZM85.3195 26.2854C82.9361 26.2854 81.1897 27.0456 80.0802 28.566C79.4638 29.4084 79.1556 30.3535 79.1556 31.4014C79.1556 32.8807 79.8747 34.1751 81.3129 35.2846C81.58 35.4901 81.8574 35.675 82.1451 35.8394H82.1142C80.902 35.8188 80.0596 36.353 79.5871 37.442C79.4227 37.8529 79.3405 38.2638 79.3405 38.6748C79.361 39.661 79.7412 40.4623 80.4808 41.0787C79.9466 41.7156 79.6795 42.3423 79.6795 42.9587C79.6795 44.0682 80.4089 44.9003 81.8677 45.455C82.8539 45.8249 84.0456 46.0098 85.4427 46.0098C88.8123 46.0098 90.9902 45.2188 91.9764 43.6367C92.2846 43.1436 92.4387 42.6299 92.4387 42.0957C92.4387 40.0205 91.3087 38.8391 89.0486 38.5515C88.7815 38.5104 88.5041 38.4898 88.2165 38.4898L81.8369 38.3666C81.3027 38.346 80.9842 38.1097 80.8815 37.6577C80.8609 37.5961 80.8506 37.5344 80.8506 37.4728C80.8506 37.0002 81.1075 36.7331 81.6211 36.6715C81.7033 36.651 81.7855 36.6407 81.8677 36.6407L85.1654 36.6715C87.4255 36.6715 89.1308 35.901 90.2814 34.3601C90.9389 33.456 91.2676 32.4492 91.2676 31.3398C91.2471 29.8399 90.682 28.6071 89.5725 27.6414C89.9424 27.0661 90.3738 26.7682 90.867 26.7477C91.1341 26.7477 91.4628 26.9223 91.8532 27.2716C92.1614 27.5181 92.449 27.6414 92.7161 27.6414C93.3325 27.6414 93.7126 27.3538 93.8564 26.7785C93.877 26.6757 93.8873 26.573 93.8873 26.4703C93.8873 25.7306 93.5277 25.2067 92.8086 24.8985C92.4798 24.7547 92.1203 24.6828 91.7299 24.6828C90.6615 24.6828 89.8294 25.2992 89.2335 26.5319C89.1308 26.7579 89.0383 26.9839 88.9561 27.21C87.9699 26.5936 86.7577 26.2854 85.3195 26.2854ZM85.4427 45.1777C82.9361 45.1777 81.4259 44.6229 80.9123 43.5134C80.8096 43.2874 80.7582 43.0614 80.7582 42.8354C80.7582 42.4039 80.9123 41.9724 81.2205 41.541C81.6314 41.7053 82.0629 41.7875 82.5149 41.7875L88.7404 41.8492C89.9321 41.8492 90.6307 42.0341 90.8361 42.4039C90.9183 42.5477 90.9594 42.7224 90.9594 42.9278C90.9594 43.8935 90.004 44.5613 88.0932 44.9311C87.2919 45.0955 86.4084 45.1777 85.4427 45.1777ZM103.489 40.3082C104.989 40.3082 105.924 39.7637 106.294 38.6748C106.417 38.2638 106.51 37.7399 106.571 37.103L105.77 37.0722C105.647 38.4898 105.287 39.209 104.691 39.2295C104.239 39.1884 104.013 38.6748 104.013 37.6885V31.2473C104.013 28.679 102.822 27.0969 100.438 26.5011C99.8218 26.3573 99.1541 26.2854 98.435 26.2854C95.6407 26.2854 93.884 26.8915 93.1648 28.1037C92.9799 28.4119 92.8875 28.7406 92.8875 29.0899C92.8875 29.8912 93.2676 30.3946 94.0278 30.6001C94.2127 30.6617 94.4079 30.6925 94.6134 30.6925C95.4968 30.6925 96.0927 30.2611 96.4009 29.3981C96.442 29.2749 96.5036 29.0694 96.5858 28.7817C96.8118 27.9599 97.0995 27.4462 97.4487 27.2408C97.6747 27.138 97.9316 27.0867 98.2192 27.0867C99.1849 27.0867 99.7705 27.6722 99.9759 28.8434C100.058 29.2749 100.099 29.7885 100.099 30.3843V32.3876C94.8188 32.4903 92.1684 33.8875 92.1478 36.579C92.1478 38.4077 92.9491 39.5788 94.5517 40.0925C95.0243 40.2363 95.5482 40.3082 96.1235 40.3082C97.8699 40.3082 99.1541 39.6507 99.9759 38.3358C100.14 38.0687 100.274 37.7913 100.377 37.5036C100.808 39.2706 101.846 40.2055 103.489 40.3082ZM97.7261 38.983C96.6988 38.9419 96.1749 38.0276 96.1543 36.24C96.1543 34.884 96.7091 34.0005 97.8186 33.5896C98.4144 33.4047 99.1746 33.2916 100.099 33.2506V36.24C99.7088 37.6783 99.0822 38.5618 98.2192 38.8905C98.0343 38.9521 97.8699 38.983 97.7261 38.983Z" fill="#363631"/>
<path d="M113.406 38.4688C113.406 37.3438 112.906 36.5156 111.906 35.9844C111.5 35.7656 111.078 35.6562 110.641 35.6562C109.484 35.6562 108.656 36.1875 108.156 37.25C107.969 37.6562 107.875 38.0625 107.875 38.4688C107.875 39.6562 108.406 40.5 109.469 41C109.844 41.1562 110.234 41.2344 110.641 41.2344C111.766 41.2344 112.594 40.7188 113.125 39.6875C113.312 39.2812 113.406 38.875 113.406 38.4688Z" fill="#FAFF0B"/>
<path d="M121.873 39.1987H121.318L121.349 31.2473C121.472 29.6241 122.006 28.566 122.951 28.0729C123.219 27.9291 123.486 27.8572 123.753 27.8572C124.513 27.8572 125.057 28.3297 125.386 29.2749C125.53 29.7269 125.602 30.2303 125.602 30.785V37.5961C125.602 38.4385 125.407 38.9419 125.016 39.1062C124.831 39.1679 124.575 39.1987 124.246 39.1987V40H130.78C130.78 39.5274 130.646 39.2706 130.379 39.2295C130.256 39.209 130.132 39.1987 130.009 39.1987H129.485V31.3089V31.0932C129.629 29.3879 130.184 28.3297 131.149 27.9188C131.355 27.8366 131.56 27.7955 131.766 27.7955C132.649 27.7955 133.255 28.3195 133.584 29.3673C133.707 29.7988 133.769 30.2713 133.769 30.785V37.5961C133.769 38.4385 133.574 38.9419 133.183 39.1062C132.999 39.1679 132.742 39.1987 132.413 39.1987V40H139.44C139.44 39.5274 139.306 39.2706 139.039 39.2295C138.916 39.209 138.793 39.1987 138.669 39.1987H137.652V31.1548C137.652 29.1413 136.984 27.7133 135.649 26.8709C135.033 26.4806 134.365 26.2854 133.646 26.2854C131.653 26.3059 130.163 27.2613 129.177 29.1516C128.684 27.6928 127.811 26.7785 126.557 26.4086C126.229 26.3265 125.9 26.2854 125.571 26.2854C123.599 26.3059 122.16 27.21 121.256 28.9975L121.102 26.7477H115.616V27.549H117.404V37.5961C117.404 38.5412 116.962 39.0651 116.079 39.1679C115.935 39.1884 115.781 39.1987 115.616 39.1987V40H122.612C122.612 39.5274 122.479 39.2706 122.212 39.2295C122.109 39.209 121.996 39.1987 121.873 39.1987ZM145.837 27.0867C147.152 27.1278 147.819 28.2475 147.84 30.446C147.84 31.4117 147.552 32.0075 146.977 32.2335C146.566 32.3773 145.95 32.4287 145.128 32.3876L143.155 32.2952C143.299 28.8845 144.193 27.1483 145.837 27.0867ZM151.6 36.8256L150.86 36.579C150.285 37.8324 149.381 38.685 148.148 39.1371C147.655 39.322 147.152 39.4144 146.638 39.4144C144.994 39.4144 143.936 38.3666 143.464 36.2709C143.279 35.4079 143.176 34.3806 143.155 33.1889L145.991 33.2814C149.299 33.3841 151.22 32.8602 151.754 31.7096C151.877 31.4219 151.939 31.1035 151.939 30.7542C151.939 29.0078 151.045 27.7339 149.258 26.9326C148.251 26.5011 147.111 26.2854 145.837 26.2854C143.515 26.2854 141.707 27.0764 140.412 28.6585C139.426 29.8912 138.933 31.4219 138.933 33.2506C138.933 36.2298 140.053 38.3049 142.292 39.4761C143.361 40.0308 144.573 40.3082 145.929 40.3082C148.333 40.3082 150.059 39.4658 151.107 37.781C151.312 37.4728 151.477 37.1543 151.6 36.8256Z" fill="#363631"/>
<g filter="url(#filter0_di)">
<path d="M22.6975 15.3842L25.1448 18.4327C25.2471 18.5602 25.2318 18.745 25.1139 18.8582C25.0766 18.8941 25.0407 18.9292 25.0062 18.9637C23.5535 20.4172 23.5619 23.2305 25.0328 24.6657C26.1065 25.7133 27.7556 25.972 28.82 27.0291C29.5377 27.7419 30.0466 28.4583 30.5209 29.363C30.9368 30.156 31.222 31.0147 31.3688 31.898C31.7146 33.9785 31.5033 35.414 30.8268 37.1308C30.4353 38.1245 29.88 39.0549 29.1402 39.8252C28.5279 40.4626 27.9212 40.9405 27.198 41.3985C26.0933 42.0981 24.8464 42.5651 23.5498 42.7345C21.7296 42.9723 20.3236 42.7787 18.5601 42.04C17.8131 41.7272 17.1135 41.3071 16.4829 40.7991C14.8862 39.5126 14.175 38.4209 13.432 36.5206C13.0187 35.4634 12.8494 34.0906 12.9633 32.7161C13.2124 29.7102 15.6483 27.5407 17.9653 25.6098C18.1801 25.4308 18.5049 25.4977 18.6384 25.7433C19.2937 26.9501 19.8866 27.7199 20.8825 28.6233C21.1494 28.8655 21.0455 29.3245 20.7144 29.4671C20.5708 29.529 20.4349 29.5962 20.3058 29.6684C18.2394 30.8239 17.1613 33.7382 18.4573 35.7195C19.1925 36.8435 20.4468 37.534 21.9142 37.6134C22.7107 37.7244 23.5881 37.4351 24.3716 36.9371C26.4018 35.6465 26.9806 32.6739 25.5655 30.7284C25.2955 30.3572 24.9664 30.0537 24.5636 29.797C23.2945 28.9879 21.8616 28.3565 21.0102 27.1154C18.4489 23.3816 18.051 19.6346 22.0461 15.3575C22.2252 15.1658 22.5333 15.1797 22.6975 15.3842Z" fill="#FAFAFA"/>
<path d="M22.6975 15.3842L25.1448 18.4327C25.2471 18.5602 25.2318 18.745 25.1139 18.8582C25.0766 18.8941 25.0407 18.9292 25.0062 18.9637C23.5535 20.4172 23.5619 23.2305 25.0328 24.6657C26.1065 25.7133 27.7556 25.972 28.82 27.0291C29.5377 27.7419 30.0466 28.4583 30.5209 29.363C30.9368 30.156 31.222 31.0147 31.3688 31.898C31.7146 33.9785 31.5033 35.414 30.8268 37.1308C30.4353 38.1245 29.88 39.0549 29.1402 39.8252C28.5279 40.4626 27.9212 40.9405 27.198 41.3985C26.0933 42.0981 24.8464 42.5651 23.5498 42.7345C21.7296 42.9723 20.3236 42.7787 18.5601 42.04C17.8131 41.7272 17.1135 41.3071 16.4829 40.7991C14.8862 39.5126 14.175 38.4209 13.432 36.5206C13.0187 35.4634 12.8494 34.0906 12.9633 32.7161C13.2124 29.7102 15.6483 27.5407 17.9653 25.6098C18.1801 25.4308 18.5049 25.4977 18.6384 25.7433C19.2937 26.9501 19.8866 27.7199 20.8825 28.6233C21.1494 28.8655 21.0455 29.3245 20.7144 29.4671C20.5708 29.529 20.4349 29.5962 20.3058 29.6684C18.2394 30.8239 17.1613 33.7382 18.4573 35.7195C19.1925 36.8435 20.4468 37.534 21.9142 37.6134C22.7107 37.7244 23.5881 37.4351 24.3716 36.9371C26.4018 35.6465 26.9806 32.6739 25.5655 30.7284C25.2955 30.3572 24.9664 30.0537 24.5636 29.797C23.2945 28.9879 21.8616 28.3565 21.0102 27.1154C18.4489 23.3816 18.051 19.6346 22.0461 15.3575C22.2252 15.1658 22.5333 15.1797 22.6975 15.3842Z" stroke="#363631" stroke-width="0.4"/>
</g>
<defs>
<filter id="filter0_di" x="4.12377" y="14.7653" width="34.9961" height="35.3949" filterUnits="userSpaceOnUse" color-interpolation-filters="sRGB">
<feFlood flood-opacity="0" result="BackgroundImageFix"/>
<feColorMatrix in="SourceAlpha" type="matrix" values="0 0 0 0 0 0 0 0 0 0 0 0 0 0 0 0 0 0 127 0" result="hardAlpha"/>
<feOffset dy="1.63237"/>
<feGaussianBlur stdDeviation="0.816183"/>
<feColorMatrix type="matrix" values="0 0 0 0 0 0 0 0 0 0 0 0 0 0 0 0 0 0 0.07 0"/>
<feBlend mode="normal" in2="BackgroundImageFix" result="effect1_dropShadow"/>
<feBlend mode="normal" in="SourceGraphic" in2="effect1_dropShadow" result="shape"/>
<feColorMatrix in="SourceAlpha" type="matrix" values="0 0 0 0 0 0 0 0 0 0 0 0 0 0 0 0 0 0 127 0" result="hardAlpha"/>
<feOffset dy="1.63237"/>
<feGaussianBlur stdDeviation="1.02023"/>
<feComposite in2="hardAlpha" operator="arithmetic" k2="-1" k3="1"/>
<feColorMatrix type="matrix" values="0 0 0 0 0.219608 0 0 0 0 0.533333 0 0 0 0 1 0 0 0 0.13 0"/>
<feBlend mode="normal" in2="shape" result="effect2_innerShadow"/>
</filter>
<linearGradient id="paint0_linear" x1="52.463" y1="-57.3077" x2="19.6129" y2="57.5381" gradientUnits="userSpaceOnUse">
<stop stop-color="#E4D54D"/>
<stop offset="0.0001" stop-color="#EAD941"/>
<stop offset="0.515625" stop-color="#EBFF09"/>
<stop offset="1" stop-color="#F7FC01"/>
</linearGradient>
</defs>
</svg>
